HIERARCHY
ROOT hip
{
  OFFSET 0.146333 93.2371 0.453235
  CHANNELS 6 Xposition Yposition Zposition Zrotation Xrotation Yrotation
  JOINT abdomen
  {
    OFFSET 0 7.2397 0
    CHANNELS 6 Xposition Yposition Zposition Zrotation Xrotation Yrotation
    JOINT chest
    {
      OFFSET 0 16.546 0
      CHANNELS 6 Xposition Yposition Zposition Zrotation Xrotation Yrotation
      JOINT neck
      {
        OFFSET 0 34.2149 0
        CHANNELS 6 Xposition Yposition Zposition Zrotation Xrotation Yrotation
        JOINT head
        {
          OFFSET 0 6.2923 0
          CHANNELS 6 Xposition Yposition Zposition Zrotation Xrotation Yrotation
          End Site
          {
            OFFSET 0 21.2161 0
          }
        }
      }
      JOINT lCollar
      {
        OFFSET 4.0639 26.6115 -1.1234
        CHANNELS 6 Xposition Yposition Zposition Zrotation Xrotation Yrotation
        JOINT lShldr
        {
          OFFSET 14.1772 0 0
          CHANNELS 6 Xposition Yposition Zposition Zrotation Xrotation Yrotation
          JOINT lForeArm
          {
            OFFSET 26.1234 0 0
            CHANNELS 6 Xposition Yposition Zposition Zrotation Xrotation Yrotation
            JOINT lHand
            {
              OFFSET 27.7188 0 0
              CHANNELS 6 Xposition Yposition Zposition Zrotation Xrotation Yrotation
              JOINT lThumb1
              {
                OFFSET 2.2979 -0.4685 1.8313
                CHANNELS 6 Xposition Yposition Zposition Zrotation Xrotation Yrotation
                JOINT lThumb2
                {
                  OFFSET 5.2953 0 0
                  CHANNELS 6 Xposition Yposition Zposition Zrotation Xrotation Yrotation
                  JOINT lThumb3
                  {
                    OFFSET 3.0181 0 0
                    CHANNELS 6 Xposition Yposition Zposition Zrotation Xrotation Yrotation
                    End Site
                    {
                      OFFSET 2.6294 0 0
                    }
                  }
                }
              }
              JOINT lIndex1
              {
                OFFSET 9.3793 0.2991 2.5924
                CHANNELS 6 Xposition Yposition Zposition Zrotation Xrotation Yrotation
                JOINT lIndex2
                {
                  OFFSET 4.3461 0 0
                  CHANNELS 6 Xposition Yposition Zposition Zrotation Xrotation Yrotation
                  JOINT lIndex3
                  {
                    OFFSET 2.1666 0 0
                    CHANNELS 6 Xposition Yposition Zposition Zrotation Xrotation Yrotation
                    End Site
                    {
                      OFFSET 2.2048 0 0
                    }
                  }
                }
              }
              JOINT lMid1
              {
                OFFSET 9.4769 0.8376 0.2947
                CHANNELS 6 Xposition Yposition Zposition Zrotation Xrotation Yrotation
                JOINT lMid2
                {
                  OFFSET 4.772 0 0
                  CHANNELS 6 Xposition Yposition Zposition Zrotation Xrotation Yrotation
                  JOINT lMid3
                  {
                    OFFSET 2.8722 0 0
                    CHANNELS 6 Xposition Yposition Zposition Zrotation Xrotation Yrotation
                    End Site
                    {
                      OFFSET 2.0959 0 0
                    }
                  }
                }
              }
              JOINT lRing1
              {
                OFFSET 8.6586 1.0176 -1.7016
                CHANNELS 6 Xposition Yposition Zposition Zrotation Xrotation Yrotation
                JOINT lRing2
                {
                  OFFSET 4.5461 0 0
                  CHANNELS 6 Xposition Yposition Zposition Zrotation Xrotation Yrotation
                  JOINT lRing3
                  {
                    OFFSET 2.506 0 0
                    CHANNELS 6 Xposition Yposition Zposition Zrotation Xrotation Yrotation
                    End Site
                    {
                      OFFSET 2.2023 0 0
                    }
                  }
                }
              }
              JOINT lPinky1
              {
                OFFSET 7.6901 0.6618 -3.9096
                CHANNELS 6 Xposition Yposition Zposition Zrotation Xrotation Yrotation
                JOINT lPinky2
                {
                  OFFSET 3.2119 0 0
                  CHANNELS 6 Xposition Yposition Zposition Zrotation Xrotation Yrotation
                  JOINT lPinky3
                  {
                    OFFSET 1.924 0 0
                    CHANNELS 6 Xposition Yposition Zposition Zrotation Xrotation Yrotation
                    End Site
                    {
                      OFFSET 1.7829 0 0
                    }
                  }
                }
              }
            }
          }
        }
      }
      JOINT rCollar
      {
        OFFSET -4.0677 26.6109 -1.1234
        CHANNELS 6 Xposition Yposition Zposition Zrotation Xrotation Yrotation
        JOINT rShldr
        {
          OFFSET -14.1772 0 0
          CHANNELS 6 Xposition Yposition Zposition Zrotation Xrotation Yrotation
          JOINT rForeArm
          {
            OFFSET -26.1234 0 0
            CHANNELS 6 Xposition Yposition Zposition Zrotation Xrotation Yrotation
            JOINT rHand
            {
              OFFSET -27.7188 0 0
              CHANNELS 6 Xposition Yposition Zposition Zrotation Xrotation Yrotation
              JOINT rThumb1
              {
                OFFSET -2.2979 -0.4684 1.8313
                CHANNELS 6 Xposition Yposition Zposition Zrotation Xrotation Yrotation
                JOINT rThumb2
                {
                  OFFSET -5.2953 0 0
                  CHANNELS 6 Xposition Yposition Zposition Zrotation Xrotation Yrotation
                  JOINT rThumb3
                  {
                    OFFSET -3.0181 0 0
                    CHANNELS 6 Xposition Yposition Zposition Zrotation Xrotation Yrotation
                    End Site
                    {
                      OFFSET -2.6294 0 0
                    }
                  }
                }
              }
              JOINT rIndex1
              {
                OFFSET -9.3793 0.2991 2.5924
                CHANNELS 6 Xposition Yposition Zposition Zrotation Xrotation Yrotation
                JOINT rIndex2
                {
                  OFFSET -4.3461 0 0
                  CHANNELS 6 Xposition Yposition Zposition Zrotation Xrotation Yrotation
                  JOINT rIndex3
                  {
                    OFFSET -2.1666 0 0
                    CHANNELS 6 Xposition Yposition Zposition Zrotation Xrotation Yrotation
                    End Site
                    {
                      OFFSET -2.2048 0 0
                    }
                  }
                }
              }
              JOINT rMid1
              {
                OFFSET -9.4769 0.8376 0.2947
                CHANNELS 6 Xposition Yposition Zposition Zrotation Xrotation Yrotation
                JOINT rMid2
                {
                  OFFSET -4.772 0 0
                  CHANNELS 6 Xposition Yposition Zposition Zrotation Xrotation Yrotation
                  JOINT rMid3
                  {
                    OFFSET -2.8722 0 0
                    CHANNELS 6 Xposition Yposition Zposition Zrotation Xrotation Yrotation
                    End Site
                    {
                      OFFSET -2.0959 0 0
                    }
                  }
                }
              }
              JOINT rRing1
              {
                OFFSET -8.6586 1.0176 -1.7016
                CHANNELS 6 Xposition Yposition Zposition Zrotation Xrotation Yrotation
                JOINT rRing2
                {
                  OFFSET -4.5461 0 0
                  CHANNELS 6 Xposition Yposition Zposition Zrotation Xrotation Yrotation
                  JOINT rRing3
                  {
                    OFFSET -2.506 0 0
                    CHANNELS 6 Xposition Yposition Zposition Zrotation Xrotation Yrotation
                    End Site
                    {
                      OFFSET -2.2023 0 0
                    }
                  }
                }
              }
              JOINT rPinky1
              {
                OFFSET -7.6901 0.6618 -3.9096
                CHANNELS 6 Xposition Yposition Zposition Zrotation Xrotation Yrotation
                JOINT rPinky2
                {
                  OFFSET -3.2119 0 0
                  CHANNELS 6 Xposition Yposition Zposition Zrotation Xrotation Yrotation
                  JOINT rPinky3
                  {
                    OFFSET -1.924 0 0
                    CHANNELS 6 Xposition Yposition Zposition Zrotation Xrotation Yrotation
                    End Site
                    {
                      OFFSET -1.7829 0 0
                    }
                  }
                }
              }
            }
          }
        }
      }
    }
  }
  JOINT lThigh
  {
    OFFSET 8.7379 -0.0029 0.0005
    CHANNELS 6 Xposition Yposition Zposition Zrotation Xrotation Yrotation
    JOINT lShin
    {
      OFFSET 0 -46.6676 0
      CHANNELS 6 Xposition Yposition Zposition Zrotation Xrotation Yrotation
      JOINT lFoot
      {
        OFFSET 0 -40.1476 0
        CHANNELS 6 Xposition Yposition Zposition Zrotation Xrotation Yrotation
        JOINT lToes
        {
          OFFSET 0 -8.8846 14.2294
          CHANNELS 6 Xposition Yposition Zposition Zrotation Xrotation Yrotation
          End Site
          {
            OFFSET 0 0 6.296
          }
        }
      }
    }
  }
  JOINT rThigh
  {
    OFFSET -8.7379 0.0029 -0.0005
    CHANNELS 6 Xposition Yposition Zposition Zrotation Xrotation Yrotation
    JOINT rShin
    {
      OFFSET 0 -46.6676 0
      CHANNELS 6 Xposition Yposition Zposition Zrotation Xrotation Yrotation
      JOINT rFoot
      {
        OFFSET 0 -40.1476 0
        CHANNELS 6 Xposition Yposition Zposition Zrotation Xrotation Yrotation
        JOINT rToes
        {
          OFFSET 0 -8.8846 14.2294
          CHANNELS 6 Xposition Yposition Zposition Zrotation Xrotation Yrotation
          End Site
          {
            OFFSET 0 0 6.296
          }
        }
      }
    }
  }
}
MOTION
Frames:	4
Frame Time:	0.0333333
0.146333 93.2371 0.453235 0.271501 -4.4472 -41.3618 0 7.2397 0 -0.727476 2.33068 -0.21192 0 16.546 2.22045e-16 -1.51384 6.52307 -0.376618 2.22045e-16 34.2149 0 -16.7001 25.191 29.4242 -4.44089e-16 6.2923 0 -0.494792 -33.9804 13.1326 4.0639 26.6115 -1.1234 3.27843 -23.4475 12.8974 14.1772 2.84217e-14 0 -81.6641 23.3367 0.671557 26.1234 0 0 -10.5199 3.42663 -69.7712 27.7188 7.10543e-15 0 154.471 -68.4714 129.712 2.2979 -0.4685 1.8313 49.6567 69.9459 -82.0286 5.2953 -3.55271e-15 0 -4.14232 2.82016 2.7966 3.0181 3.55271e-15 0 12.4883 -8.77736e-05 -8.02464e-06 9.3793 0.2991 2.5924 -27.268 2.18444 9.70139 4.3461 1.42109e-14 1.77636e-15 -80.6365 -0.415609 -9.99177 2.1666 7.10543e-15 0 -2.16839 1.87415e-06 7.57535e-06 9.4769 0.8376 0.2947 -57.6812 -3.82927 2.19363 4.772 0 0 -60.5266 -1.64042 -1.06345 2.8722 7.10543e-15 0 3.9574 0.0710999 0.399399 8.6586 1.0176 -1.7016 -68.473 -4.9489 0.0678376 4.5461 1.42109e-14 7.10543e-15 -58.3695 2.44539 0.494847 2.506 0 0 6.76051 3.92509e-06 -9.33122e-05 7.6901 0.6618 -3.9096 -84.2305 -13.4409 -12.0655 3.2119 7.10543e-15 1.42109e-14 -55.9428 1.86812 8.95915 1.924 0 3.55271e-15 4.4131 8.50843e-06 1.62077e-06 -4.0677 26.6109 -1.1234 -6.70139 9.84011 -2.13195 -14.1772 0 0 44.2101 37.1631 23.7509 -26.1234 0 0 0.792326 -2.27845 115.472 -27.7188 1.42109e-14 0 10.2937 -40.3244 -15.6646 -2.2979 -0.4684 1.8313 -63.9149 79.6346 108.21 -5.2953 0 0 1.18126 22.7979 -12.6817 -3.0181 -2.84217e-14 0 -12.4883 -9.94822e-05 0.000113704 -9.3793 0.2991 2.5924 -0.409274 0.506632 0.271742 -4.3461 2.66454e-15 0 22.2057 -1.84291 -1.65545 -2.1666 -3.55271e-15 0 2.1682 9.64979e-07 2.26884e-06 -9.4769 0.8376 0.2947 44.0271 2.33436 -1.19281 -4.772 -3.55271e-15 1.42109e-14 110.919 -9.2225 0.990078 -2.8722 0 1.42109e-14 -3.9575 0.0709998 -0.399407 -8.6586 1.0176 -1.7016 50.2109 -7.56096 1.18867 -4.5461 7.10543e-15 -1.42109e-14 96.5184 7.12102 1.66571 -2.506 -1.77636e-15 -1.42109e-14 -6.7605 8.22796e-06 -1.23665e-06 -7.6901 0.6618 -3.9096 66.9689 -14.2019 8.4561 -3.2119 7.10543e-15 0 80.2853 2.24055 -7.21548 -1.924 -2.66454e-15 0 -4.41301 5.44323e-07 -2.62332e-06 8.7379 -0.0029 0.0005 14.6065 -11.042 52.3501 1.77636e-15 -46.6676 0 2.27167 30.2255 6.55677 1.77636e-15 -40.1476 -3.55271e-15 -2.24334 -7.17556 8.61516 1.77636e-15 -8.8846 14.2294 0.0001 -4.96962e-17 3.18055e-15 -8.7379 0.0029 -0.0005 -12.1528 -3.58067 -4.03996 -3.55271e-15 -46.6676 1.77636e-15 -2.88105 30.9482 1.21538 0 -40.1476 1.77636e-15 11.1651 -23.0226 -22.3217 3.55271e-15 -8.8846 14.2294 -9.93923e-17 -7.45443e-17 -0 
-0.27409 93.2983 0.531652 0.316489 -4.4869 -41.1848 -8.88178e-16 7.2397 0 -0.775213 2.27514 -0.215769 0 16.546 0 -1.59648 6.41217 -0.378359 0 34.2149 0 -16.6611 25.3321 29.426 4.44089e-16 6.2923 1.42109e-14 -0.402752 -33.7908 12.9947 4.0639 26.6115 -1.1234 3.36058 -23.4392 12.9775 14.1772 0 -7.10543e-15 -81.4824 23.4395 0.928617 26.1234 -7.10543e-15 3.55271e-15 -10.5823 3.5084 -70.3061 27.7188 -7.10543e-15 0 154.334 -68.443 129.262 2.2979 -0.4685 1.8313 50.0294 69.9423 -82.3221 5.2953 0 0 -4.15865 2.82427 2.7348 3.0181 -3.55271e-15 -1.42109e-14 12.4883 -8.77736e-05 -8.02464e-06 9.3793 0.2991 2.5924 -27.5191 2.17924 9.77752 4.3461 -1.42109e-14 0 -80.6265 -0.415098 -9.99059 2.1666 0 -3.55271e-15 -2.16839 1.87415e-06 7.57535e-06 9.4769 0.8376 0.2947 -57.7963 -3.77621 2.39909 4.772 7.10543e-15 0 -60.5092 -1.63854 -1.06306 2.8722 7.10543e-15 7.10543e-15 3.9574 0.0710999 0.399399 8.6586 1.0176 -1.7016 -68.6854 -4.95082 0.0608614 4.5461 -7.10543e-15 -3.55271e-15 -58.3235 2.44295 0.493728 2.506 0 -3.55271e-15 6.76051 3.92509e-06 -9.33122e-05 7.6901 0.6618 -3.9096 -84.2326 -13.4324 -12.0476 3.2119 -3.55271e-15 -1.42109e-14 -55.945 1.86803 8.95962 1.924 1.42109e-14 3.55271e-15 4.4131 8.50843e-06 1.62077e-06 -4.0677 26.6109 -1.1234 -6.65694 9.8349 -2.08835 -14.1772 -5.68434e-14 0 44.1948 37.2913 23.7044 -26.1234 1.42109e-14 0 0.793569 -2.27917 115.449 -27.7188 -1.42109e-14 -1.42109e-14 10.5721 -40.2246 -15.2331 -2.2979 -0.4684 1.8313 -64.0772 79.4728 108.344 -5.2953 0 0 1.10685 22.7943 -12.6636 -3.0181 -1.42109e-14 3.55271e-15 -12.4883 -9.94822e-05 0.000113704 -9.3793 0.2991 2.5924 -0.48668 0.511693 0.286368 -4.3461 0 -1.42109e-14 22.1468 -1.83518 -1.65563 -2.1666 -3.55271e-15 0 2.1682 9.64979e-07 2.26884e-06 -9.4769 0.8376 0.2947 44.3055 2.33771 -1.13019 -4.772 0 0 110.961 -9.22464 0.994185 -2.8722 3.55271e-15 0 -3.9575 0.0709998 -0.399407 -8.6586 1.0176 -1.7016 50.2931 -7.55972 1.2089 -4.5461 0 -1.42109e-14 96.4702 7.11728 1.66861 -2.506 -1.77636e-15 1.42109e-14 -6.7605 8.22796e-06 -1.23665e-06 -7.6901 0.6618 -3.9096 66.9981 -14.2183 8.43442 -3.2119 2.13163e-14 0 80.2236 2.24176 -7.20524 -1.924 8.88178e-16 0 -4.41301 5.44323e-07 -2.62332e-06 8.7379 -0.0029 0.0005 14.5195 -10.7788 51.9527 1.77636e-15 -46.6676 -7.10543e-15 2.22839 29.8284 6.5036 8.88178e-16 -40.1476 -3.55271e-15 -2.48786 -6.92834 8.78191 3.55271e-15 -8.8846 14.2294 0.0001 -4.96962e-17 -3.18055e-15 -8.7379 0.0029 -0.0005 -11.9911 -3.15993 -4.01162 0 -46.6676 1.77636e-15 -2.84112 30.651 1.19926 0 -40.1476 0 10.947 -23.1657 -22.606 -3.55271e-15 -8.8846 14.2294 -1.98785e-16 -2.48481e-17 6.36111e-15 
-0.697156 93.3588 0.575973 0.402665 -4.59617 -40.9525 -8.88178e-16 7.2397 0 -0.852439 2.25049 -0.240038 -4.44089e-16 16.546 -4.44089e-16 -1.71935 6.36344 -0.41898 -1.66533e-16 34.2149 0 -16.6419 25.4161 29.4188 4.44089e-16 6.2923 0 -0.262456 -33.6266 12.9142 4.0639 26.6115 -1.1234 3.45401 -23.4247 13.0855 14.1772 0 7.10543e-15 -81.2392 23.6518 1.07789 26.1234 -7.10543e-15 0 -10.6423 3.58963 -70.8099 27.7188 0 -1.42109e-14 154.392 -68.3285 128.956 2.2979 -0.4685 1.8313 50.2656 69.9778 -82.4855 5.2953 3.55271e-15 -1.42109e-14 -4.17521 2.82845 2.67207 3.0181 -7.10543e-15 0 12.4883 -8.77736e-05 -8.02464e-06 9.3793 0.2991 2.5924 -27.7119 2.1772 9.87945 4.3461 -1.42109e-14 -1.77636e-15 -80.6347 -0.415593 -9.99161 2.1666 0 0 -2.16839 1.87415e-06 7.57535e-06 9.4769 0.8376 0.2947 -57.9161 -3.72296 2.60595 4.772 -7.10543e-15 0 -60.5052 -1.63814 -1.06297 2.8722 -7.10543e-15 3.55271e-15 3.9574 0.0710999 0.399399 8.6586 1.0176 -1.7016 -68.9034 -4.95426 0.0453403 4.5461 0 0 -58.2649 2.43982 0.492297 2.506 0 0 6.76051 3.92509e-06 -9.33122e-05 7.6901 0.6618 -3.9096 -84.2342 -13.426 -12.0341 3.2119 0 -7.10543e-15 -55.9431 1.86814 8.95919 1.924 0 -3.55271e-15 4.4131 8.50843e-06 1.62077e-06 -4.0677 26.6109 -1.1234 -6.62821 9.83117 -2.06143 -14.1772 -2.84217e-14 7.10543e-15 44.215 37.3753 23.6708 -26.1234 0 0 0.794158 -2.27976 115.435 -27.7188 1.42109e-14 0 10.8789 -40.1244 -14.8268 -2.2979 -0.4684 1.8313 -64.2548 79.3227 108.488 -5.2953 0 7.10543e-15 1.04887 22.7914 -12.6495 -3.0181 -1.42109e-14 0 -12.4883 -9.94822e-05 0.000113704 -9.3793 0.2991 2.5924 -0.564225 0.516203 0.305074 -4.3461 -1.77636e-15 1.42109e-14 22.1371 -1.83398 -1.65569 -2.1666 0 0 2.1682 9.64979e-07 2.26884e-06 -9.4769 0.8376 0.2947 44.5751 2.34021 -1.074 -4.772 3.55271e-15 0 110.992 -9.2262 0.997162 -2.8722 0 0 -3.9575 0.0709998 -0.399407 -8.6586 1.0176 -1.7016 50.3836 -7.56233 1.22059 -4.5461 -7.10543e-15 0 96.4147 7.11295 1.67193 -2.506 4.44089e-15 0 -6.7605 8.22796e-06 -1.23665e-06 -7.6901 0.6618 -3.9096 67.0549 -14.2342 8.41878 -3.2119 1.42109e-14 -1.42109e-14 80.2126 2.242 -7.20342 -1.924 -3.10862e-15 0 -4.41301 5.44323e-07 -2.62332e-06 8.7379 -0.0029 0.0005 14.2437 -10.5519 51.0857 0 -46.6676 0 2.17348 29.2985 6.36341 -8.88178e-16 -40.1476 3.55271e-15 -2.7884 -6.59528 9.48162 0 -8.8846 14.2294 0.0001 4.96962e-17 -3.18055e-15 -8.7379 0.0029 -0.0005 -11.873 -2.74729 -3.95337 -3.55271e-15 -46.6676 1.77636e-15 -2.81269 30.4287 1.20356 0 -40.1476 1.77636e-15 10.7026 -23.3557 -22.9878 0 -8.8846 14.2294 9.93923e-17 -7.45443e-17 -0 
-1.10579 93.4056 0.599931 0.516958 -4.81471 -40.5275 0 7.2397 0 -0.953361 2.26867 -0.306124 -4.44089e-16 16.546 0 -1.87772 6.40124 -0.541414 -4.996e-16 34.2149 -1.77636e-15 -16.5384 25.4626 29.3872 -4.44089e-16 6.2923 -1.42109e-14 -0.206998 -33.435 12.7629 4.0639 26.6115 -1.1234 3.58556 -23.4004 13.2434 14.1772 0 7.10543e-15 -80.8773 24.0282 1.01114 26.1234 0 0 -10.7114 3.66378 -71.2855 27.7188 0 1.42109e-14 154.665 -68.122 128.809 2.2979 -0.4685 1.8313 50.2731 70.0715 -82.4345 5.2953 0 2.84217e-14 -4.19048 2.83232 2.61413 3.0181 0 -1.42109e-14 12.4883 -8.77736e-05 -8.02464e-06 9.3793 0.2991 2.5924 -27.8542 2.17787 10.004 4.3461 0 -1.77636e-15 -80.6381 -0.415836 -9.99204 2.1666 7.10543e-15 -7.10543e-15 -2.16839 1.87415e-06 7.57535e-06 9.4769 0.8376 0.2947 -58.0134 -3.66406 2.83021 4.772 -7.10543e-15 0 -60.5 -1.63758 -1.06285 2.8722 0 0 3.9574 0.0710999 0.399399 8.6586 1.0176 -1.7016 -69.0932 -4.96019 0.0145172 4.5461 0 3.55271e-15 -58.192 2.4359 0.490515 2.506 0 0 6.76051 3.92509e-06 -9.33122e-05 7.6901 0.6618 -3.9096 -84.2353 -13.4217 -12.0251 3.2119 -3.55271e-15 0 -55.9433 1.86814 8.95924 1.924 0 0 4.4131 8.50843e-06 1.62077e-06 -4.0677 26.6109 -1.1234 -6.60891 9.83052 -2.05066 -14.1772 2.84217e-14 -7.10543e-15 44.2465 37.4126 23.6812 -26.1234 -1.42109e-14 0 0.793854 -2.27989 115.438 -27.7188 -1.42109e-14 0 11.1538 -39.9953 -14.4121 -2.2979 -0.4684 1.8313 -64.4849 79.1593 108.672 -5.2953 0 7.10543e-15 1.00735 22.7892 -12.6392 -3.0181 1.42109e-14 -3.55271e-15 -12.4883 -9.94822e-05 0.000113704 -9.3793 0.2991 2.5924 -0.665769 0.524289 0.31417 -4.3461 4.44089e-15 -1.42109e-14 22.1502 -1.83576 -1.65569 -2.1666 -3.55271e-15 1.42109e-14 2.1682 9.64979e-07 2.26884e-06 -9.4769 0.8376 0.2947 44.8665 2.34242 -1.01583 -4.772 0 -1.42109e-14 111.015 -9.22738 0.999454 -2.8722 0 0 -3.9575 0.0709998 -0.399407 -8.6586 1.0176 -1.7016 50.4826 -7.56669 1.22931 -4.5461 1.42109e-14 -1.42109e-14 96.3534 7.10816 1.67559 -2.506 -1.77636e-15 -1.42109e-14 -6.7605 8.22796e-06 -1.23665e-06 -7.6901 0.6618 -3.9096 67.1261 -14.2516 8.40329 -3.2119 7.10543e-15 0 80.2201 2.24188 -7.20462 -1.924 -1.33227e-15 -1.42109e-14 -4.41301 5.44323e-07 -2.62332e-06 8.7379 -0.0029 0.0005 13.7958 -10.4239 49.529 -8.88178e-16 -46.6676 7.10543e-15 2.09924 28.8037 6.51534 0 -40.1476 3.55271e-15 -3.11398 -6.24807 10.3172 0 -8.8846 14.2294 0.0001 0 -0 -8.7379 0.0029 -0.0005 -11.8193 -2.27552 -3.92985 0 -46.6676 1.77636e-15 -2.79576 30.3141 1.1648 3.55271e-15 -40.1476 0 10.4683 -23.6201 -23.4524 0 -8.8846 14.2294 9.93923e-17 -2.48481e-17 -0 
